<?xml version="1.0" encoding="UTF-8"?><svg xmlns="http://www.w3.org/2000/svg" viewBox="0 0 355.7 382.1"><g id="a"/><g id="b"><g id="c"><g><path d="M130.8,381.6h-15.2L39.7,210.5c-7.5-16.5-13.4-27-17.8-31.5-4.3-4.5-11.5-6.9-21.4-7.3v-12H97.1v12c-10.6,0-17.9,.9-21.8,2.6-3.9,1.7-5.9,5-5.9,9.9s3.5,13.1,10.5,27.9l57.7,129.5,51.9-115.4c8.2-18.4,12.3-30.4,12.3-36,0-11.6-8.7-17.8-26.1-18.5v-12h72v12c-8.9,.5-16.3,4.2-22.3,11.1-6,6.9-14.4,22.3-25.2,46.2l-69.4,152.7Z" style="fill:#51b4e6; stroke:#51b4e6; stroke-miterlimit:10;"/><path d="M158.2,1c81.8-6.1,160.4,43.5,187.5,124.6,21,62.8,6,129-34.1,176.2,18-45.7,20.1-100.6,2.1-154.3C287.6,69.2,225.8,14.5,158.2,1" style="fill:#51b4e6; fill-rule:evenodd; stroke:#51b4e6; stroke-miterlimit:10;"/></g></g></g></svg>